<svg xmlns="http://www.w3.org/2000/svg" width="315" viewBox="0 0 315 93.75" height="93.75" version="1.0"><defs><clipPath id="a"><path d="M 51.601562 0.425781 L 89.371094 0.425781 L 89.371094 38.195312 L 51.601562 38.195312 Z M 51.601562 0.425781"/></clipPath><clipPath id="b"><path d="M 51.601562 48.167969 L 89.371094 48.167969 L 89.371094 86.019531 L 51.601562 86.019531 Z M 51.601562 48.167969"/></clipPath><clipPath id="c"><path d="M 0.417969 0 L 40 0 L 40 39 L 0.417969 39 Z M 0.417969 0"/></clipPath><clipPath id="d"><path d="M 0.914062 48.167969 L 38.824219 48.167969 L 38.824219 86.019531 L 0.914062 86.019531 Z M 0.914062 48.167969"/></clipPath></defs><g clip-path="url(#a)"><path fill="#43D3E8" d="M 53.863281 18.820312 L 56.011719 18.820312 C 56.332031 18.820312 56.59375 19.082031 56.59375 19.402344 C 56.59375 19.722656 56.332031 19.984375 56.011719 19.984375 L 53.863281 19.984375 C 53.539062 19.984375 53.277344 19.722656 53.277344 19.402344 C 53.277344 19.082031 53.539062 18.820312 53.863281 18.820312 Z M 55.578125 10.839844 C 55.742188 10.5625 56.097656 10.46875 56.378906 10.628906 L 58.238281 11.699219 C 58.519531 11.859375 58.613281 12.214844 58.453125 12.496094 C 58.292969 12.773438 57.933594 12.867188 57.65625 12.707031 L 55.792969 11.636719 C 55.515625 11.476562 55.417969 11.121094 55.578125 10.839844 Z M 61.871094 4.574219 C 62.148438 4.414062 62.507812 4.511719 62.667969 4.789062 L 63.742188 6.640625 C 63.902344 6.921875 63.808594 7.277344 63.527344 7.4375 C 63.25 7.597656 62.890625 7.503906 62.730469 7.222656 L 61.65625 5.371094 C 61.496094 5.089844 61.589844 4.734375 61.871094 4.574219 Z M 70.089844 19.054688 C 70.113281 19.03125 70.140625 19.003906 70.167969 18.984375 L 79.773438 8.007812 C 79.953125 7.800781 80.269531 7.78125 80.476562 7.960938 C 80.679688 8.140625 80.703125 8.453125 80.523438 8.660156 L 71.425781 19.054688 L 77.304688 24.769531 C 77.671875 25.128906 77.679688 25.71875 77.320312 26.085938 C 77.136719 26.273438 76.894531 26.367188 76.648438 26.367188 C 76.414062 26.367188 76.179688 26.28125 75.996094 26.101562 L 70.105469 20.375 C 69.734375 20.015625 69.726562 19.425781 70.089844 19.054688 Z M 69.878906 2.863281 C 69.878906 2.542969 70.140625 2.28125 70.460938 2.28125 C 70.785156 2.28125 71.046875 2.542969 71.046875 2.863281 L 71.046875 5.003906 C 71.046875 5.324219 70.785156 5.585938 70.460938 5.585938 C 70.140625 5.585938 69.878906 5.324219 69.878906 5.003906 Z M 77.183594 6.640625 L 78.257812 4.789062 C 78.417969 4.511719 78.777344 4.414062 79.054688 4.574219 C 79.332031 4.734375 79.429688 5.089844 79.269531 5.371094 L 78.195312 7.222656 C 78.03125 7.503906 77.675781 7.597656 77.394531 7.4375 C 77.117188 7.277344 77.019531 6.921875 77.183594 6.640625 Z M 82.472656 26.308594 C 82.632812 26.03125 82.992188 25.9375 83.269531 26.097656 L 85.132812 27.167969 C 85.410156 27.328125 85.507812 27.683594 85.34375 27.960938 C 85.183594 28.242188 84.824219 28.335938 84.546875 28.175781 L 82.6875 27.105469 C 82.40625 26.945312 82.3125 26.589844 82.472656 26.308594 Z M 82.6875 11.699219 L 84.546875 10.628906 C 84.824219 10.46875 85.183594 10.5625 85.34375 10.839844 C 85.507812 11.121094 85.410156 11.476562 85.132812 11.636719 L 83.269531 12.707031 C 82.992188 12.867188 82.632812 12.773438 82.472656 12.496094 C 82.3125 12.214844 82.40625 11.859375 82.6875 11.699219 Z M 87.648438 19.402344 C 87.648438 19.722656 87.386719 19.984375 87.0625 19.984375 L 84.914062 19.984375 C 84.59375 19.984375 84.328125 19.722656 84.328125 19.402344 C 84.328125 19.082031 84.59375 18.820312 84.914062 18.820312 L 87.0625 18.820312 C 87.386719 18.820312 87.648438 19.082031 87.648438 19.402344 Z M 79.054688 34.226562 C 78.777344 34.390625 78.417969 34.292969 78.257812 34.015625 L 77.183594 32.160156 C 77.019531 31.882812 77.117188 31.527344 77.394531 31.367188 C 77.675781 31.207031 78.03125 31.300781 78.195312 31.578125 L 79.269531 33.433594 C 79.429688 33.710938 79.332031 34.066406 79.054688 34.226562 Z M 71.046875 35.941406 C 71.046875 36.261719 70.785156 36.523438 70.460938 36.523438 C 70.140625 36.523438 69.878906 36.261719 69.878906 35.941406 L 69.878906 33.800781 C 69.878906 33.476562 70.140625 33.21875 70.460938 33.21875 C 70.785156 33.21875 71.046875 33.476562 71.046875 33.800781 Z M 69.175781 38.128906 C 69.601562 38.15625 70.03125 38.171875 70.460938 38.171875 C 80.867188 38.171875 89.300781 29.769531 89.300781 19.402344 C 89.300781 9.035156 80.867188 0.632812 70.460938 0.632812 C 60.058594 0.632812 51.621094 9.035156 51.621094 19.402344 C 51.621094 19.953125 51.648438 20.5 51.695312 21.039062 C 60.097656 23.289062 66.761719 29.816406 69.175781 38.128906"/></g><g clip-path="url(#b)"><path fill="#43D3E8" d="M 79.9375 75.414062 L 75.179688 75.414062 L 75.179688 58.957031 L 79.9375 58.957031 Z M 72.839844 75.414062 L 68.082031 75.414062 L 68.082031 62.265625 L 72.839844 62.265625 Z M 65.746094 75.414062 L 60.988281 75.414062 L 60.988281 65.21875 L 65.746094 65.21875 Z M 70.460938 48.347656 C 70.285156 48.347656 70.105469 48.351562 69.929688 48.355469 C 68.578125 58.347656 61.242188 66.472656 51.644531 69.023438 C 52.570312 78.5625 60.640625 86.023438 70.460938 86.023438 C 80.90625 86.023438 89.371094 77.589844 89.371094 67.183594 C 89.371094 56.78125 80.90625 48.347656 70.460938 48.347656"/></g><path fill="#43D3E8" d="M 19.855469 53.484375 C 12.273438 53.484375 6.101562 59.632812 6.101562 67.183594 C 6.101562 74.738281 12.273438 80.886719 19.855469 80.886719 C 27.4375 80.886719 33.605469 74.738281 33.605469 67.183594 C 33.605469 67.117188 33.601562 67.054688 33.601562 66.988281 C 31.28125 65.765625 29.179688 64.1875 27.367188 62.332031 C 28.28125 63.730469 28.8125 65.394531 28.8125 67.183594 C 28.8125 72.105469 24.792969 76.113281 19.855469 76.113281 C 14.914062 76.113281 10.894531 72.105469 10.894531 67.183594 C 10.894531 62.261719 14.914062 58.257812 19.855469 58.257812 C 22.070312 58.257812 24.097656 59.066406 25.660156 60.398438 C 24.054688 58.371094 22.757812 56.09375 21.84375 53.628906 C 21.191406 53.535156 20.53125 53.484375 19.855469 53.484375"/><g clip-path="url(#c)"><path fill="#43D3E8" d="M 16.519531 21.269531 C 17.050781 21.710938 17.570312 22 18.003906 22.1875 C 18.984375 22.613281 19.742188 22.628906 19.847656 22.628906 L 19.859375 22.628906 C 19.964844 22.628906 20.726562 22.613281 21.703125 22.1875 C 22.121094 22.007812 22.617188 21.734375 23.128906 21.320312 C 23.371094 21.839844 23.929688 22.960938 24.460938 23.574219 C 24.242188 24.710938 23.363281 26.894531 19.855469 27.007812 C 16.304688 26.890625 15.445312 24.65625 15.238281 23.535156 C 15.726562 23.007812 16.296875 21.773438 16.519531 21.269531 Z M 19.855469 38.589844 C 20.292969 38.589844 20.730469 38.574219 21.160156 38.546875 C 22.527344 33.515625 25.441406 29.113281 29.363281 25.882812 L 24.617188 22.949219 C 24.191406 22.351562 23.746094 21.453125 23.527344 20.972656 C 23.96875 20.554688 24.410156 20.027344 24.816406 19.359375 C 24.835938 19.328125 24.875 19.308594 24.914062 19.3125 C 24.972656 19.320312 25.039062 19.316406 25.105469 19.300781 C 25.714844 19.148438 26.363281 17.902344 26.546875 17.523438 C 26.789062 17.035156 27.332031 15.789062 27.214844 14.835938 C 27.148438 14.308594 26.875 13.957031 26.441406 13.828125 C 27.667969 9.570312 26.195312 8.625 25.792969 8.453125 C 25.738281 8.429688 25.675781 8.4375 25.625 8.472656 L 24.566406 9.238281 L 24.503906 9.28125 L 24.199219 9.503906 L 24.089844 9.585938 L 23.382812 10.09375 C 23.308594 10.148438 23.292969 10.253906 23.347656 10.328125 C 25.035156 12.699219 25.105469 15.136719 25.089844 15.792969 C 25.089844 15.886719 25.164062 15.964844 25.261719 15.964844 L 25.582031 15.964844 C 25.652344 15.964844 25.714844 15.921875 25.742188 15.855469 C 25.953125 15.320312 26.128906 14.824219 26.277344 14.363281 C 26.507812 14.429688 26.625 14.613281 26.660156 14.941406 C 26.714844 15.503906 26.46875 16.414062 26.019531 17.320312 C 25.671875 18.023438 25.339844 18.453125 25.136719 18.644531 C 25.082031 18.691406 25 18.671875 24.976562 18.605469 L 24.894531 18.398438 C 24.863281 18.320312 24.753906 18.3125 24.714844 18.386719 L 24.527344 18.734375 C 23.765625 20.128906 22.75 21.117188 21.507812 21.664062 C 20.578125 22.070312 19.867188 22.066406 19.859375 22.066406 L 19.847656 22.066406 C 19.742188 22.066406 16.980469 22.03125 15.179688 18.734375 L 14.992188 18.386719 C 14.953125 18.3125 14.84375 18.320312 14.8125 18.398438 L 14.734375 18.605469 C 14.707031 18.671875 14.625 18.691406 14.574219 18.644531 C 14.367188 18.453125 14.035156 18.023438 13.6875 17.320312 C 13.238281 16.414062 12.996094 15.503906 13.050781 14.941406 C 13.082031 14.609375 13.203125 14.425781 13.441406 14.359375 C 13.632812 15.09375 13.839844 15.636719 13.925781 15.855469 C 13.949219 15.921875 14.011719 15.964844 14.082031 15.964844 L 14.371094 15.964844 C 14.472656 15.964844 14.550781 15.875 14.539062 15.777344 C 14.089844 11.378906 17.527344 12.457031 17.808594 12.554688 C 17.824219 12.558594 17.835938 12.5625 17.851562 12.5625 C 21.625 12.894531 22.660156 10.632812 22.789062 10.304688 C 22.800781 10.28125 22.816406 10.257812 22.835938 10.238281 L 23.832031 9.410156 L 24.289062 9.035156 L 25.390625 8.117188 C 25.445312 8.074219 25.464844 8.003906 25.445312 7.9375 C 24.636719 5.25 18.386719 5.683594 18.386719 5.683594 C 12.550781 6.296875 12.679688 10.988281 13.308594 13.816406 C 12.851562 13.933594 12.5625 14.292969 12.496094 14.835938 C 12.375 15.789062 12.921875 17.035156 13.160156 17.523438 C 13.34375 17.902344 13.996094 19.148438 14.601562 19.300781 C 14.667969 19.316406 14.734375 19.320312 14.796875 19.3125 C 14.832031 19.308594 14.871094 19.328125 14.890625 19.359375 C 15.28125 20 15.703125 20.507812 16.125 20.917969 L 16.121094 20.914062 C 15.835938 21.578125 15.378906 22.5 15.03125 22.988281 L 9.460938 26.425781 C 7.164062 27.269531 6.570312 29.667969 6.417969 30.667969 C 3.796875 27.601562 2.214844 23.628906 2.214844 19.296875 C 2.214844 9.605469 10.128906 1.722656 19.855469 1.722656 C 29.582031 1.722656 37.492188 9.605469 37.492188 19.296875 C 37.492188 20.027344 37.445312 20.75 37.355469 21.457031 C 37.945312 21.261719 38.542969 21.085938 39.152344 20.9375 C 39.195312 20.394531 39.222656 19.847656 39.222656 19.296875 C 39.222656 8.65625 30.535156 0 19.855469 0 C 9.175781 0 0.488281 8.65625 0.488281 19.296875 C 0.488281 29.933594 9.175781 38.589844 19.855469 38.589844"/></g><path fill="#43D3E8" d="M 22.367188 67.183594 C 22.367188 68.566406 21.242188 69.6875 19.855469 69.6875 C 18.464844 69.6875 17.339844 68.566406 17.339844 67.183594 C 17.339844 65.804688 18.464844 64.679688 19.855469 64.679688 C 21.242188 64.679688 22.367188 65.804688 22.367188 67.183594 Z M 12.546875 67.183594 C 12.546875 71.199219 15.824219 74.464844 19.855469 74.464844 C 23.882812 74.464844 27.160156 71.199219 27.160156 67.183594 C 27.160156 63.171875 23.882812 59.90625 19.855469 59.90625 C 15.824219 59.90625 12.546875 63.171875 12.546875 67.183594"/><g clip-path="url(#d)"><path fill="#43D3E8" d="M 19.855469 82.53125 C 11.359375 82.53125 4.449219 75.648438 4.449219 67.183594 C 4.449219 58.722656 11.359375 51.839844 19.855469 51.839844 C 20.332031 51.839844 20.804688 51.863281 21.273438 51.902344 C 20.941406 50.753906 20.6875 49.570312 20.523438 48.359375 C 20.300781 48.355469 20.078125 48.347656 19.855469 48.347656 C 9.410156 48.347656 0.945312 56.78125 0.945312 67.183594 C 0.945312 77.589844 9.410156 86.023438 19.855469 86.023438 C 29.6875 86.023438 37.765625 78.546875 38.675781 68.988281 C 37.496094 68.667969 36.351562 68.261719 35.246094 67.777344 C 34.933594 75.96875 28.148438 82.53125 19.855469 82.53125"/></g><path fill="#43D3E8" d="M 44.796875 41.738281 C 44.410156 41.515625 43.808594 41.40625 42.988281 41.40625 C 42.398438 41.40625 42.082031 41.496094 42.046875 41.675781 C 42.007812 41.882812 41.988281 42.492188 41.988281 43.496094 C 41.988281 43.636719 41.992188 43.847656 42 44.125 C 42.003906 44.402344 42.007812 44.613281 42.007812 44.75 C 42.007812 44.777344 42.109375 44.808594 42.308594 44.839844 C 42.683594 44.898438 43.082031 44.925781 43.5 44.925781 C 44.859375 44.925781 45.542969 44.386719 45.542969 43.308594 C 45.542969 42.550781 45.292969 42.03125 44.796875 41.738281"/><path fill="#43D3E8" d="M 60.570312 51.40625 C 60.570312 50.78125 60.59375 49.84375 60.640625 48.59375 C 60.6875 47.34375 60.710938 46.40625 60.710938 45.78125 C 60.710938 45.597656 60.683594 45.503906 60.625 45.492188 C 60.558594 45.527344 60.140625 46.484375 59.375 48.359375 C 58.929688 49.460938 58.480469 50.5625 58.035156 51.660156 C 57.972656 51.800781 57.894531 51.882812 57.800781 51.910156 C 57.769531 51.914062 57.644531 51.917969 57.429688 51.917969 C 57.105469 51.917969 56.914062 51.855469 56.851562 51.730469 C 56.515625 51.050781 56.074219 50.058594 55.527344 48.761719 C 54.941406 47.386719 54.503906 46.390625 54.210938 45.78125 C 54.199219 45.746094 54.171875 45.714844 54.128906 45.675781 C 54.082031 45.730469 54.0625 45.824219 54.0625 45.945312 C 54.0625 46.550781 54.078125 47.464844 54.109375 48.675781 C 54.140625 49.890625 54.15625 50.800781 54.15625 51.40625 C 54.15625 51.625 54.070312 51.730469 53.894531 51.730469 L 50.78125 51.730469 C 50.65625 51.730469 50.582031 51.710938 50.550781 51.671875 C 50.523438 51.632812 50.511719 51.5625 50.511719 51.460938 C 50.511719 50.789062 50.542969 49.773438 50.609375 48.421875 C 50.671875 47.066406 50.707031 46.054688 50.707031 45.378906 C 50.707031 44.660156 50.675781 43.3125 50.613281 41.339844 C 50.605469 40.824219 50.578125 40.058594 50.53125 39.042969 L 50.519531 38.886719 C 50.515625 38.761719 50.644531 38.703125 50.910156 38.703125 C 51.253906 38.703125 51.765625 38.691406 52.449219 38.667969 C 53.132812 38.648438 53.644531 38.636719 53.988281 38.636719 C 54.054688 38.636719 54.152344 38.765625 54.277344 39.027344 L 57 44.980469 C 57.191406 45.382812 57.351562 45.582031 57.484375 45.582031 C 57.550781 45.582031 57.699219 45.351562 57.921875 44.886719 C 58.550781 43.585938 59.480469 41.628906 60.710938 39.007812 C 60.816406 38.765625 60.929688 38.644531 61.054688 38.644531 C 61.234375 38.644531 61.507812 38.65625 61.871094 38.671875 C 62.234375 38.691406 62.507812 38.703125 62.695312 38.703125 C 62.851562 38.703125 63.089844 38.6875 63.410156 38.65625 C 63.730469 38.625 63.964844 38.609375 64.121094 38.609375 C 64.308594 38.609375 64.402344 38.683594 64.402344 38.832031 C 64.402344 39.5625 64.375 40.652344 64.320312 42.105469 C 64.269531 43.558594 64.242188 44.648438 64.242188 45.378906 C 64.242188 46.054688 64.269531 47.066406 64.328125 48.417969 C 64.382812 49.765625 64.410156 50.777344 64.410156 51.445312 C 64.410156 51.636719 64.320312 51.730469 64.140625 51.730469 L 60.839844 51.730469 C 60.660156 51.730469 60.570312 51.625 60.570312 51.40625 Z M 49.269531 51.730469 C 49.035156 51.769531 48.441406 51.789062 47.488281 51.789062 C 46.675781 51.789062 46.121094 51.769531 45.832031 51.730469 C 45.695312 51.714844 45.617188 51.699219 45.597656 51.6875 C 45.558594 51.667969 45.515625 51.605469 45.46875 51.5 C 45.375 51.257812 45.238281 50.898438 45.058594 50.421875 C 44.8125 49.804688 44.4375 48.890625 43.917969 47.683594 C 43.8125 47.449219 43.570312 47.320312 43.191406 47.289062 C 43.234375 47.296875 42.902344 47.300781 42.183594 47.300781 C 42.09375 47.300781 42.046875 47.460938 42.046875 47.777344 C 42.046875 48.195312 42.085938 48.824219 42.160156 49.660156 C 42.238281 50.496094 42.277344 51.125 42.277344 51.546875 C 42.277344 51.652344 42.25 51.714844 42.195312 51.730469 C 42.109375 51.738281 42.019531 51.746094 41.933594 51.75 C 41.566406 51.777344 40.996094 51.789062 40.21875 51.789062 C 39.328125 51.789062 38.796875 51.769531 38.613281 51.730469 C 38.433594 51.695312 38.34375 51.597656 38.34375 51.445312 C 38.34375 50.761719 38.378906 49.734375 38.441406 48.359375 C 38.507812 46.984375 38.539062 45.953125 38.539062 45.269531 C 38.539062 42.648438 38.480469 40.605469 38.363281 39.136719 L 38.355469 39.007812 C 38.347656 38.902344 38.445312 38.832031 38.648438 38.792969 C 38.847656 38.757812 39.796875 38.71875 41.496094 38.683594 C 42.644531 38.65625 43.5625 38.644531 44.246094 38.644531 C 45.664062 38.644531 46.820312 38.964844 47.714844 39.601562 C 48.726562 40.320312 49.234375 41.359375 49.234375 42.714844 C 49.234375 43.617188 49.101562 44.339844 48.839844 44.878906 C 48.582031 45.417969 48.097656 45.941406 47.398438 46.449219 C 47.253906 46.546875 47.183594 46.640625 47.183594 46.726562 C 47.183594 46.71875 47.5625 47.496094 48.320312 49.058594 C 49.078125 50.617188 49.457031 51.480469 49.457031 51.640625 C 49.457031 51.683594 49.394531 51.714844 49.269531 51.730469 Z M 37.140625 50.023438 C 35.996094 51.378906 34.480469 52.058594 32.582031 52.058594 C 30.644531 52.058594 29.070312 51.398438 27.867188 50.078125 C 26.691406 48.804688 26.101562 47.195312 26.101562 45.25 C 26.101562 43.367188 26.679688 41.769531 27.828125 40.457031 C 29.027344 39.082031 30.554688 38.394531 32.40625 38.394531 C 34.417969 38.394531 35.996094 39.011719 37.140625 40.242188 C 37.265625 40.378906 37.328125 40.5 37.328125 40.605469 C 37.328125 40.722656 37.113281 41.160156 36.679688 41.914062 C 36.25 42.671875 35.976562 43.09375 35.863281 43.1875 C 35.816406 43.238281 35.753906 43.261719 35.679688 43.261719 C 35.648438 43.261719 35.492188 43.136719 35.210938 42.890625 C 34.875 42.59375 34.546875 42.359375 34.222656 42.195312 C 33.734375 41.945312 33.222656 41.824219 32.695312 41.824219 C 31.78125 41.824219 31.050781 42.164062 30.503906 42.84375 C 30 43.476562 29.75 44.257812 29.75 45.183594 C 29.75 46.125 30 46.914062 30.503906 47.554688 C 31.050781 48.246094 31.78125 48.59375 32.695312 48.59375 C 33.234375 48.59375 33.75 48.476562 34.234375 48.238281 C 34.550781 48.085938 34.875 47.867188 35.203125 47.589844 C 35.476562 47.355469 35.628906 47.238281 35.660156 47.238281 C 35.722656 47.238281 35.785156 47.269531 35.847656 47.339844 C 35.945312 47.449219 36.214844 47.835938 36.65625 48.5 C 37.109375 49.1875 37.335938 49.566406 37.335938 49.632812 C 37.335938 49.730469 37.273438 49.863281 37.140625 50.023438 Z M 70.875 45.226562 C 70.875 31.128906 59.40625 19.703125 45.257812 19.703125 C 31.109375 19.703125 19.640625 31.128906 19.640625 45.226562 C 19.640625 59.320312 31.109375 70.75 45.257812 70.75 C 59.40625 70.75 70.875 59.320312 70.875 45.226562"/><g fill="#43D3E8"><g><g><path d="M 19.796875 -7.890625 C 19.796875 -6.273438 19.382812 -4.84375 18.5625 -3.59375 C 17.75 -2.34375 16.570312 -1.367188 15.03125 -0.671875 C 13.488281 0.015625 11.679688 0.359375 9.609375 0.359375 C 7.878906 0.359375 6.425781 0.238281 5.25 0 C 4.082031 -0.25 2.863281 -0.675781 1.59375 -1.28125 L 1.59375 -7.53125 C 2.9375 -6.84375 4.328125 -6.304688 5.765625 -5.921875 C 7.210938 -5.535156 8.539062 -5.34375 9.75 -5.34375 C 10.789062 -5.34375 11.554688 -5.523438 12.046875 -5.890625 C 12.535156 -6.253906 12.78125 -6.71875 12.78125 -7.28125 C 12.78125 -7.632812 12.679688 -7.945312 12.484375 -8.21875 C 12.285156 -8.488281 11.96875 -8.757812 11.53125 -9.03125 C 11.101562 -9.300781 9.953125 -9.859375 8.078125 -10.703125 C 6.390625 -11.472656 5.117188 -12.21875 4.265625 -12.9375 C 3.421875 -13.65625 2.796875 -14.484375 2.390625 -15.421875 C 1.984375 -16.359375 1.78125 -17.46875 1.78125 -18.75 C 1.78125 -21.132812 2.648438 -22.992188 4.390625 -24.328125 C 6.128906 -25.671875 8.519531 -26.34375 11.5625 -26.34375 C 14.25 -26.34375 16.992188 -25.722656 19.796875 -24.484375 L 17.640625 -19.0625 C 15.210938 -20.175781 13.117188 -20.734375 11.359375 -20.734375 C 10.441406 -20.734375 9.773438 -20.570312 9.359375 -20.25 C 8.953125 -19.9375 8.75 -19.539062 8.75 -19.0625 C 8.75 -18.550781 9.007812 -18.09375 9.53125 -17.6875 C 10.0625 -17.289062 11.492188 -16.5625 13.828125 -15.5 C 16.066406 -14.488281 17.617188 -13.40625 18.484375 -12.25 C 19.359375 -11.09375 19.796875 -9.640625 19.796875 -7.890625 Z M 19.796875 -7.890625" transform="translate(94.823 53.541)"/></g></g></g><g fill="#43D3E8"><g><g><path d="M 9.375 0 L 2.4375 0 L 2.4375 -20.125 L 9.375 -20.125 Z M 2.25 -25.140625 C 2.25 -26.179688 2.539062 -26.957031 3.125 -27.46875 C 3.707031 -27.976562 4.644531 -28.234375 5.9375 -28.234375 C 7.226562 -28.234375 8.171875 -27.972656 8.765625 -27.453125 C 9.359375 -26.929688 9.65625 -26.160156 9.65625 -25.140625 C 9.65625 -23.109375 8.414062 -22.09375 5.9375 -22.09375 C 3.476562 -22.09375 2.25 -23.109375 2.25 -25.140625 Z M 2.25 -25.140625" transform="translate(115.824 53.541)"/></g></g></g><g fill="#43D3E8"><g><g><path d="M 27.109375 0 L 27.109375 -10.953125 C 27.109375 -12.304688 26.921875 -13.320312 26.546875 -14 C 26.179688 -14.6875 25.59375 -15.03125 24.78125 -15.03125 C 23.71875 -15.03125 22.9375 -14.570312 22.4375 -13.65625 C 21.945312 -12.75 21.703125 -11.320312 21.703125 -9.375 L 21.703125 0 L 14.734375 0 L 14.734375 -10.953125 C 14.734375 -12.304688 14.554688 -13.320312 14.203125 -14 C 13.847656 -14.6875 13.269531 -15.03125 12.46875 -15.03125 C 11.382812 -15.03125 10.59375 -14.546875 10.09375 -13.578125 C 9.59375 -12.609375 9.34375 -11.019531 9.34375 -8.8125 L 9.34375 0 L 2.40625 0 L 2.40625 -20.125 L 7.640625 -20.125 L 8.515625 -17.640625 L 8.921875 -17.640625 C 9.453125 -18.566406 10.222656 -19.269531 11.234375 -19.75 C 12.253906 -20.238281 13.40625 -20.484375 14.6875 -20.484375 C 17.59375 -20.484375 19.632812 -19.601562 20.8125 -17.84375 L 21.359375 -17.84375 C 21.929688 -18.664062 22.722656 -19.3125 23.734375 -19.78125 C 24.742188 -20.25 25.859375 -20.484375 27.078125 -20.484375 C 29.460938 -20.484375 31.222656 -19.875 32.359375 -18.65625 C 33.492188 -17.4375 34.0625 -15.582031 34.0625 -13.09375 L 34.0625 0 Z M 27.109375 0" transform="translate(127.657 53.541)"/></g></g></g><g fill="#43D3E8"><g><g><path d="M 14.484375 0.359375 C 13.460938 0.359375 12.546875 0.191406 11.734375 -0.140625 C 10.929688 -0.484375 10.132812 -1.09375 9.34375 -1.96875 L 9.03125 -1.96875 C 9.238281 -0.5625 9.34375 0.3125 9.34375 0.65625 L 9.34375 8.75 L 2.40625 8.75 L 2.40625 -20.125 L 8.046875 -20.125 L 9.03125 -17.578125 L 9.34375 -17.578125 C 10.632812 -19.515625 12.414062 -20.484375 14.6875 -20.484375 C 16.914062 -20.484375 18.664062 -19.554688 19.9375 -17.703125 C 21.207031 -15.859375 21.84375 -13.328125 21.84375 -10.109375 C 21.84375 -6.859375 21.179688 -4.300781 19.859375 -2.4375 C 18.535156 -0.570312 16.742188 0.359375 14.484375 0.359375 Z M 12.15625 -15.03125 C 11.132812 -15.03125 10.421875 -14.664062 10.015625 -13.9375 C 9.609375 -13.207031 9.382812 -12.128906 9.34375 -10.703125 L 9.34375 -10.140625 C 9.34375 -8.410156 9.570312 -7.160156 10.03125 -6.390625 C 10.5 -5.617188 11.226562 -5.234375 12.21875 -5.234375 C 13.113281 -5.234375 13.757812 -5.613281 14.15625 -6.375 C 14.5625 -7.144531 14.765625 -8.414062 14.765625 -10.1875 C 14.765625 -11.914062 14.5625 -13.15625 14.15625 -13.90625 C 13.757812 -14.65625 13.09375 -15.03125 12.15625 -15.03125 Z M 12.15625 -15.03125" transform="translate(164.045 53.541)"/></g></g></g><g fill="#43D3E8"><g><g><path d="M 9.34375 0 L 2.40625 0 L 2.40625 -27.640625 L 9.34375 -27.640625 Z M 9.34375 0" transform="translate(187.445 53.541)"/></g></g></g><g fill="#43D3E8"><g><g><path d="M 12.125 0.359375 C 8.769531 0.359375 6.164062 -0.53125 4.3125 -2.3125 C 2.457031 -4.101562 1.53125 -6.644531 1.53125 -9.9375 C 1.53125 -13.332031 2.390625 -15.9375 4.109375 -17.75 C 5.828125 -19.570312 8.273438 -20.484375 11.453125 -20.484375 C 14.492188 -20.484375 16.835938 -19.691406 18.484375 -18.109375 C 20.140625 -16.535156 20.96875 -14.257812 20.96875 -11.28125 L 20.96875 -8.1875 L 8.546875 -8.1875 C 8.597656 -7.0625 9.007812 -6.175781 9.78125 -5.53125 C 10.5625 -4.894531 11.617188 -4.578125 12.953125 -4.578125 C 14.171875 -4.578125 15.289062 -4.691406 16.3125 -4.921875 C 17.34375 -5.160156 18.457031 -5.554688 19.65625 -6.109375 L 19.65625 -1.125 C 18.5625 -0.5625 17.429688 -0.175781 16.265625 0.03125 C 15.109375 0.25 13.726562 0.359375 12.125 0.359375 Z M 11.703125 -15.765625 C 10.890625 -15.765625 10.207031 -15.503906 9.65625 -14.984375 C 9.101562 -14.472656 8.78125 -13.664062 8.6875 -12.5625 L 14.65625 -12.5625 C 14.632812 -13.53125 14.359375 -14.304688 13.828125 -14.890625 C 13.304688 -15.472656 12.597656 -15.765625 11.703125 -15.765625 Z M 11.703125 -15.765625" transform="translate(199.207 53.541)"/></g></g></g><g fill="#43D3E8"><g><g><path d="M 14.375 -20.59375 C 12.707031 -20.59375 11.40625 -19.90625 10.46875 -18.53125 C 9.53125 -17.164062 9.0625 -15.28125 9.0625 -12.875 C 9.0625 -7.882812 10.960938 -5.390625 14.765625 -5.390625 C 15.910156 -5.390625 17.019531 -5.546875 18.09375 -5.859375 C 19.175781 -6.179688 20.265625 -6.566406 21.359375 -7.015625 L 21.359375 -1.078125 C 19.191406 -0.117188 16.738281 0.359375 14 0.359375 C 10.082031 0.359375 7.078125 -0.773438 4.984375 -3.046875 C 2.890625 -5.328125 1.84375 -8.617188 1.84375 -12.921875 C 1.84375 -15.609375 2.347656 -17.96875 3.359375 -20 C 4.378906 -22.039062 5.835938 -23.609375 7.734375 -24.703125 C 9.640625 -25.796875 11.878906 -26.34375 14.453125 -26.34375 C 17.253906 -26.34375 19.9375 -25.734375 22.5 -24.515625 L 20.34375 -19 C 19.382812 -19.445312 18.425781 -19.820312 17.46875 -20.125 C 16.507812 -20.4375 15.476562 -20.59375 14.375 -20.59375 Z M 14.375 -20.59375" transform="translate(231.152 53.541)"/></g></g></g><g fill="#43D3E8"><g><g><path d="M 9.828125 -9.453125 L 9.828125 0 L 2.8125 0 L 2.8125 -25.984375 L 11.3125 -25.984375 C 18.375 -25.984375 21.90625 -23.421875 21.90625 -18.296875 C 21.90625 -15.285156 20.4375 -12.957031 17.5 -11.3125 L 25.078125 0 L 17.109375 0 L 11.609375 -9.453125 Z M 9.828125 -14.734375 L 11.140625 -14.734375 C 13.585938 -14.734375 14.8125 -15.816406 14.8125 -17.984375 C 14.8125 -19.773438 13.613281 -20.671875 11.21875 -20.671875 L 9.828125 -20.671875 Z M 9.828125 -14.734375" transform="translate(254.765 53.541)"/></g></g></g><g fill="#43D3E8"><g><g><path d="M 14.125 0 L 8.8125 -18.703125 L 8.65625 -18.703125 C 8.90625 -15.523438 9.03125 -13.050781 9.03125 -11.28125 L 9.03125 0 L 2.8125 0 L 2.8125 -25.984375 L 12.15625 -25.984375 L 17.578125 -7.53125 L 17.71875 -7.53125 L 23.03125 -25.984375 L 32.390625 -25.984375 L 32.390625 0 L 25.9375 0 L 25.9375 -11.390625 C 25.9375 -11.984375 25.945312 -12.640625 25.96875 -13.359375 C 25.988281 -14.085938 26.066406 -15.859375 26.203125 -18.671875 L 26.046875 -18.671875 L 20.8125 0 Z M 14.125 0" transform="translate(279.391 53.541)"/></g></g></g></svg>